<svg width="330" height="169" viewBox="0 0 330 169" fill="none" xmlns="http://www.w3.org/2000/svg">
<rect x="15" y="6" width="315" height="157" rx="20" fill="#3B3B3B"/>
<path d="M85.0006 126.167C108.013 126.167 126.667 107.513 126.667 84.5006C126.667 61.4888 108.013 42.834 85.0006 42.834C61.9888 42.834 43.334 61.4888 43.334 84.5006C43.334 107.513 61.9888 126.167 85.0006 126.167Z" fill="url(#paint0_linear_40079_3892)"/>
<g filter="url(#filter0_f_40079_3892)">
<path d="M84.9992 114.934C101.808 114.934 115.434 101.308 115.434 84.4992C115.434 67.6906 101.808 54.0645 84.9992 54.0645C68.1906 54.0645 54.5645 67.6906 54.5645 84.4992C54.5645 101.308 68.1906 114.934 84.9992 114.934Z" fill="url(#paint1_linear_40079_3892)"/>
</g>
<path fill-rule="evenodd" clip-rule="evenodd" d="M82.1364 50.6527C82.8335 50.6527 83.3987 50.0876 83.3987 49.3905C83.3987 48.6934 82.8335 48.1283 82.1364 48.1283C81.4393 48.1283 80.8745 48.6934 80.8745 49.3905C80.8745 50.0876 81.4393 50.6527 82.1364 50.6527ZM82.1364 51.5994C83.3564 51.5994 84.3455 50.6104 84.3455 49.3905C84.3455 48.1706 83.3564 47.1816 82.1364 47.1816C80.9165 47.1816 79.9277 48.1706 79.9277 49.3905C79.9277 50.6104 80.9165 51.5994 82.1364 51.5994Z" fill="white"/>
<path fill-rule="evenodd" clip-rule="evenodd" d="M52.0643 108.623C52.7614 108.623 53.3265 108.058 53.3265 107.361C53.3265 106.664 52.7614 106.099 52.0643 106.099C51.3672 106.099 50.8021 106.664 50.8021 107.361C50.8021 108.058 51.3672 108.623 52.0643 108.623ZM52.0643 109.57C53.2842 109.57 54.2732 108.581 54.2732 107.361C54.2732 106.141 53.2842 105.152 52.0643 105.152C50.8444 105.152 49.8555 106.141 49.8555 107.361C49.8555 108.581 50.8444 109.57 52.0643 109.57Z" fill="white"/>
<path fill-rule="evenodd" clip-rule="evenodd" d="M121.267 105.725C121.964 105.725 122.53 105.16 122.53 104.463C122.53 103.765 121.964 103.201 121.267 103.201C120.57 103.201 120.005 103.765 120.005 104.463C120.005 105.16 120.57 105.725 121.267 105.725ZM121.267 106.672C122.487 106.672 123.476 105.683 123.476 104.463C123.476 103.243 122.487 102.254 121.267 102.254C120.047 102.254 119.059 103.243 119.059 104.463C119.059 105.683 120.047 106.672 121.267 106.672Z" fill="white"/>
<path d="M61.5912 56.308C61.6841 55.9234 62.2311 55.9234 62.324 56.308L62.6364 57.6024C62.6696 57.7398 62.7769 57.8471 62.9144 57.8803L64.2088 58.1928C64.5934 58.2856 64.5934 58.8327 64.2088 58.9255L62.9144 59.238C62.7769 59.2712 62.6696 59.3785 62.6364 59.5159L62.324 60.8103C62.2311 61.1949 61.6841 61.1949 61.5912 60.8103L61.2788 59.5159C61.2456 59.3785 61.1383 59.2712 61.0008 59.238L59.7064 58.9255C59.3218 58.8327 59.3218 58.2856 59.7064 58.1928L61.0008 57.8803C61.1383 57.8471 61.2456 57.7398 61.2788 57.6024L61.5912 56.308Z" fill="white"/>
<path d="M115.179 112.974C115.281 112.553 115.881 112.553 115.982 112.974L116.325 114.393C116.361 114.544 116.479 114.662 116.629 114.698L118.048 115.041C118.47 115.142 118.47 115.742 118.048 115.843L116.629 116.186C116.479 116.222 116.361 116.34 116.325 116.491L115.982 117.909C115.881 118.331 115.281 118.331 115.179 117.909L114.836 116.491C114.8 116.34 114.682 116.222 114.532 116.186L113.113 115.843C112.691 115.742 112.691 115.142 113.113 115.041L114.532 114.698C114.682 114.662 114.8 114.544 114.836 114.393L115.179 112.974Z" fill="url(#paint2_linear_40079_3892)"/>
<path d="M55.6626 118.282C56.1423 118.205 56.5253 118.676 56.3519 119.13L55.182 122.193C55.0087 122.647 54.409 122.743 54.1027 122.366L52.0346 119.821C51.7282 119.444 51.9448 118.877 52.4245 118.8L55.6626 118.282Z" fill="url(#paint3_linear_40079_3892)"/>
<path d="M117.239 59.5026C117.119 59.0318 117.553 58.6076 118.021 58.7391L121.178 59.6263C121.646 59.7577 121.796 60.3461 121.448 60.6855L119.102 62.9759C118.754 63.3152 118.169 63.151 118.049 62.6802L117.239 59.5026Z" fill="url(#paint4_linear_40079_3892)"/>
<path d="M106.728 81.4964L99.8823 82.8272C97.9344 83.2054 96.6627 85.0913 97.0413 87.0388C97.4199 88.9862 99.3054 90.258 101.253 89.8797L108.099 88.5489C110.046 88.1703 111.318 86.2848 110.939 84.3373C110.561 82.3899 108.675 81.1177 106.728 81.4964Z" fill="url(#paint5_linear_40079_3892)"/>
<path d="M109.417 85.0089C109.452 84.1223 108.761 83.3755 107.874 83.3411C106.987 83.3063 106.241 83.9973 106.206 84.8839C106.172 85.7705 106.862 86.5172 107.749 86.552C108.636 86.5864 109.383 85.8955 109.417 85.0089Z" fill="#EBEBEB"/>
<path d="M107.979 85.8091C108.456 85.7163 108.767 85.2547 108.674 84.7783C108.582 84.3015 108.12 83.9903 107.643 84.0826C107.167 84.1754 106.855 84.637 106.948 85.1138C107.041 85.5903 107.502 85.9018 107.979 85.8091Z" fill="#DBDBDB"/>
<path d="M95.8735 70.6766L60.9208 77.4709C58.9565 77.8524 57.6737 79.7546 58.0555 81.7187L62.778 106.014C63.1598 107.978 65.0617 109.261 67.026 108.879L101.979 102.085C103.943 101.703 105.226 99.8013 104.844 97.8368L100.121 73.5419C99.7398 71.5777 97.838 70.2948 95.8735 70.6766Z" fill="url(#paint6_linear_40079_3892)"/>
<path d="M95.2338 59.6308L102.374 78.0857C102.773 79.1173 102.26 80.2774 101.23 80.6763L71.9606 91.9999C70.9308 92.3991 69.7707 91.8854 69.3709 90.8538L62.2312 72.3988C61.8606 71.4386 62.3367 70.3598 63.2971 69.9892L92.8233 58.5671C93.7838 58.1966 94.8625 58.6727 95.2331 59.6331L95.2338 59.6308Z" fill="url(#paint7_linear_40079_3892)"/>
<path d="M96.6105 77.3242C96.9765 78.2731 96.5058 79.3401 95.5569 79.706C94.6084 80.0723 93.541 79.6013 93.175 78.6524C92.8087 77.7039 93.2797 76.6368 94.2286 76.2705C95.1772 75.9046 96.2446 76.3756 96.6105 77.3242Z" fill="url(#paint8_linear_40079_3892)"/>
<path d="M98.7236 76.5056C99.0899 77.4545 98.6189 78.5216 97.6704 78.8879C96.7214 79.2538 95.6544 78.7828 95.2881 77.8343C94.9222 76.8853 95.3932 75.8183 96.3417 75.4524C97.2906 75.0861 98.3577 75.5571 98.7236 76.5056Z" fill="url(#paint9_linear_40079_3892)"/>
<path d="M71.0547 70.6308L66.2593 72.4859C65.8727 72.6355 65.6805 73.0703 65.8301 73.4569L66.945 76.3388C67.0945 76.7254 67.5293 76.9178 67.9159 76.7682L72.7111 74.9127C73.0981 74.7634 73.2901 74.3287 73.1405 73.9421L72.0256 71.0602C71.876 70.6734 71.4412 70.4813 71.0547 70.6308Z" fill="url(#paint10_linear_40079_3892)"/>
<path d="M92.8797 64.8851L90.0757 65.9691C89.4268 66.2183 88.6986 65.8967 88.4475 65.2483C88.1986 64.5993 88.5199 63.8709 89.1685 63.6201L91.9721 62.5362C92.6207 62.2854 93.3497 62.6085 93.6004 63.257C93.8497 63.906 93.5279 64.6343 92.8797 64.8851Z" fill="white"/>
<path d="M68.4967 81.0266L68.3008 81.274C68.3008 81.274 68.2846 81.2918 68.2729 81.2961C68.2496 81.3052 68.2244 81.2994 68.208 81.2867C68.1768 81.2603 68.1727 81.2197 68.1987 81.1925L68.4644 80.8476C68.487 80.8215 68.5326 80.8157 68.5585 80.8382C68.5726 80.8501 68.58 80.8642 68.5847 80.8816L69.2238 82.5316C69.2366 82.565 69.2225 82.603 69.1858 82.6171C69.1524 82.6298 69.1131 82.6124 69.1004 82.5791L68.5001 81.0251L68.4967 81.0266Z" fill="#F8F8F8"/>
<path d="M69.6433 82.3146L70.1888 81.232C70.2531 81.1001 70.2591 80.9563 70.2097 80.8277C70.1675 80.7175 70.0835 80.6237 69.9695 80.5657C69.8409 80.5005 69.6943 80.4972 69.5698 80.5469C69.4563 80.5907 69.3609 80.6712 69.3016 80.786L69.2455 80.8994C69.2301 80.9338 69.1878 80.9483 69.1582 80.9309C69.1235 80.9154 69.1092 80.8733 69.1265 80.8436L69.1819 80.7284C69.2569 80.5849 69.3805 80.478 69.5224 80.4237C69.6792 80.3632 69.8608 80.3625 70.0282 80.4494C70.1768 80.5226 70.2807 80.6436 70.3338 80.782C70.3947 80.9407 70.3928 81.1251 70.3098 81.2929L69.8427 82.2208L70.6937 81.894C70.7264 81.8795 70.765 81.8954 70.7791 81.932C70.7919 81.9654 70.7745 82.0049 70.7411 82.0175L69.7396 82.4056L69.7296 82.4096C69.7112 82.4168 69.6909 82.4186 69.6758 82.4092C69.6416 82.3896 69.6268 82.3512 69.6423 82.3168L69.6433 82.3146Z" fill="#F8F8F8"/>
<path d="M71.6381 79.7339L71.3584 80.3908C71.4805 80.3709 71.6095 80.3825 71.7297 80.4361C71.8935 80.5089 72.0138 80.6426 72.0739 80.7995C72.1341 80.9564 72.1359 81.1357 72.0613 81.3002C71.9884 81.4643 71.8551 81.5861 71.6989 81.648C71.5457 81.7067 71.3663 81.7085 71.2017 81.6339C71.1678 81.6201 71.1507 81.581 71.1672 81.5441C71.1803 81.5082 71.2203 81.493 71.2573 81.5093C71.3877 81.5647 71.5272 81.5647 71.6508 81.5172C71.7743 81.4698 71.8797 81.3756 71.9392 81.2459C71.9975 81.114 71.9953 80.9734 71.9479 80.8498C71.9004 80.7263 71.8066 80.6209 71.6761 80.5658C71.546 80.5064 71.4055 80.5089 71.2819 80.556C71.262 80.564 71.2395 80.5607 71.2205 80.5509L71.2172 80.5524C71.1809 80.5375 71.1649 80.4959 71.182 80.4604L71.4508 79.8288L70.7616 80.0933C70.7255 80.1093 70.6863 80.0919 70.6729 80.0567C70.6588 80.0201 70.6762 79.9806 70.7113 79.9672L71.5522 79.6444C71.5881 79.6288 71.6276 79.6462 71.641 79.6814C71.645 79.6912 71.6453 79.7027 71.6435 79.7129C71.6435 79.7223 71.641 79.731 71.6377 79.7379L71.6381 79.7339Z" fill="#F8F8F8"/>
<path d="M73.6548 80.4642L72.6819 80.8414L72.6736 80.8446C72.6602 80.8497 72.6439 80.8522 72.6301 80.8461C72.5939 80.837 72.5747 80.7964 72.5885 80.7624L73.1279 79.066L73.1298 79.0613C73.1424 79.024 73.1761 79.0073 73.2135 79.0196C73.2265 79.0243 73.2363 79.0341 73.245 79.0421C73.2468 79.0472 73.2515 79.049 73.2522 79.0508L73.2555 79.0591L73.7319 80.291L73.8522 80.2446C73.8888 80.2309 73.9283 80.2483 73.941 80.2816C73.9537 80.3149 73.9363 80.3541 73.9011 80.3675L73.7812 80.4138L73.8997 80.7225C73.9124 80.7559 73.895 80.795 73.8598 80.8084C73.8265 80.8214 73.7874 80.8037 73.7743 80.7704L73.6558 80.4617L73.6548 80.4642ZM73.6077 80.3406L73.2 79.2892L72.758 80.6707L73.6087 80.3439L73.6077 80.3406Z" fill="#F8F8F8"/>
<path d="M75.9801 79.7855C75.9438 79.7707 75.9279 79.729 75.9456 79.6953C75.9612 79.6609 76.0022 79.6431 76.0373 79.6602C76.1677 79.7156 76.3076 79.7156 76.4308 79.6681C76.5543 79.6207 76.6565 79.5279 76.7152 79.3964C76.7739 79.2645 76.7721 79.1254 76.7246 79.0022C76.6768 78.8768 76.5826 78.7714 76.4533 78.7138C76.3246 78.658 76.1833 78.6587 76.0598 78.7058C75.9344 78.754 75.8308 78.8475 75.7721 78.979C75.7565 79.0138 75.7148 79.0297 75.6819 79.0138C75.6717 79.012 75.6634 79.0055 75.6594 78.9993L75.658 78.996C75.658 78.996 75.6529 78.9924 75.6514 78.9892C75.6464 78.9852 75.6431 78.9768 75.6406 78.9703C75.6391 78.9671 75.6388 78.9613 75.6369 78.9562L75.4435 78.1979C75.4359 78.1779 75.4395 78.1573 75.4507 78.1417C75.4569 78.1276 75.4699 78.1171 75.4866 78.1105L76.3243 77.7892C76.3601 77.7732 76.3993 77.7906 76.413 77.8258C76.4275 77.8642 76.4094 77.9018 76.3746 77.9152L75.5902 78.2163L75.733 78.7779C75.8036 78.6873 75.8978 78.6189 76.0065 78.5772C76.1634 78.5171 76.338 78.5131 76.5047 78.5888C76.6721 78.6605 76.7877 78.7921 76.8493 78.9522C76.908 79.1058 76.9145 79.2873 76.838 79.4526C76.7645 79.6145 76.6297 79.7373 76.4746 79.7968C76.3177 79.8569 76.1384 79.8587 75.9746 79.7859L75.9801 79.7855Z" fill="#F8F8F8"/>
<path d="M77.2176 77.8956C77.2575 77.6296 77.402 77.3883 77.6962 77.2619C77.7285 77.2459 77.7676 77.2633 77.7839 77.2956C77.7977 77.3321 77.7803 77.3713 77.7477 77.3858C77.4995 77.4927 77.3912 77.6836 77.3491 77.914C77.3278 78.0427 77.3365 78.185 77.3607 78.3231C77.422 78.1579 77.5495 78.0169 77.7267 77.9492C78.0586 77.8216 78.4256 77.985 78.5513 78.3122C78.6774 78.6408 78.5155 79.0071 78.1857 79.1358C77.864 79.2593 77.5046 79.1064 77.3705 78.7923C77.351 78.7557 77.3361 78.7173 77.3202 78.6756C77.2303 78.4365 77.1781 78.1557 77.2194 77.8948L77.2176 77.8956ZM77.4919 78.734C77.497 78.7474 77.5042 78.7561 77.5097 78.7655C77.5129 78.7738 77.5147 78.7789 77.5133 78.785C77.6328 79.0017 77.8991 79.1021 78.1347 79.0119C78.3966 78.9115 78.5252 78.6187 78.4267 78.3619C78.3281 78.105 78.0354 77.976 77.7734 78.0767C77.5165 78.1753 77.3876 78.4677 77.4865 78.7249L77.4901 78.7347L77.4919 78.734Z" fill="#F8F8F8"/>
<path d="M79.3995 78.5684L79.4539 76.7347L78.5843 77.0684C78.5517 77.0825 78.5129 77.0669 78.5002 77.0336C78.4876 77.0002 78.505 76.9607 78.5383 76.9481L79.4894 76.5829C79.5006 76.5727 79.5126 76.5684 79.5278 76.5684C79.5459 76.5709 79.5651 76.5807 79.576 76.5937C79.5825 76.601 79.5861 76.6053 79.5887 76.6118C79.5937 76.6252 79.5941 76.6365 79.5912 76.6492L79.535 78.5716C79.5339 78.5988 79.5162 78.6231 79.493 78.6318C79.4829 78.6358 79.4778 78.6376 79.4658 78.6365C79.4292 78.6354 79.3995 78.6028 79.3977 78.5687L79.3995 78.5684Z" fill="#F8F8F8"/>
<path d="M80.5123 76.1692C80.7177 76.0906 80.9518 76.192 81.0308 76.3971C81.0786 76.5224 81.0587 76.6543 80.9938 76.7598C81.2406 76.7645 81.4714 76.917 81.5645 77.159C81.6888 77.4826 81.5301 77.8424 81.2069 77.9681C80.8848 78.092 80.5235 77.9337 80.3978 77.6108C80.3047 77.3688 80.3728 77.1014 80.5489 76.9326C80.4326 76.8985 80.3308 76.8134 80.283 76.688C80.204 76.4829 80.3029 76.2514 80.5116 76.1714L80.5123 76.1692ZM81.1605 77.8424C81.4174 77.7438 81.5398 77.4594 81.4427 77.2058C81.346 76.954 81.063 76.825 80.8058 76.9239C80.5522 77.021 80.4272 77.3083 80.5239 77.5605C80.6217 77.8156 80.9069 77.9398 81.1605 77.8424ZM80.7551 76.796C80.892 76.7395 80.9619 76.5826 80.909 76.4438C80.8558 76.3054 80.7 76.2387 80.5616 76.292C80.4232 76.3453 80.3558 76.4993 80.409 76.6377C80.4623 76.7761 80.6174 76.8467 80.7565 76.7953L80.7551 76.796Z" fill="#F8F8F8"/>
<path d="M83.7056 74.9342C84.0143 74.8157 84.3516 74.9469 84.4983 75.2291C84.5034 75.2331 84.5049 75.2364 84.5085 75.2407C84.5302 75.2878 84.552 75.3389 84.5723 75.3922C84.6639 75.631 84.7157 75.9154 84.6777 76.1752C84.636 76.436 84.49 76.6835 84.1991 76.8085L84.1958 76.8099C84.1592 76.8241 84.1212 76.8099 84.1081 76.7766C84.0944 76.7397 84.1089 76.7034 84.1444 76.686C84.3886 76.5788 84.5045 76.3871 84.5429 76.1578C84.5628 76.0259 84.5589 75.8857 84.5313 75.7487C84.4701 75.9139 84.3404 76.0498 84.1603 76.119C83.8331 76.2444 83.4665 76.0868 83.3371 75.7552C83.2118 75.4284 83.3752 75.061 83.7023 74.9357L83.7056 74.9342ZM84.4038 75.3422C84.3052 75.0853 84.0154 74.9589 83.7534 75.0596C83.4965 75.1581 83.3672 75.4491 83.465 75.7045C83.5657 75.9665 83.8563 76.09 84.1132 75.9915C84.3752 75.8911 84.5045 75.6041 84.402 75.3425L84.4038 75.3422Z" fill="#F8F8F8"/>
<path d="M85.1077 75.4265C85.015 75.1848 84.9903 74.9413 85.036 74.7305C85.0845 74.5283 85.199 74.358 85.3809 74.2881C85.5628 74.2182 85.7635 74.2674 85.9345 74.3837C86.107 74.5091 86.2584 74.7037 86.353 74.945C86.4458 75.1866 86.4653 75.4319 86.42 75.6388C86.3722 75.8428 86.2581 76.0149 86.0762 76.0848C85.8943 76.1544 85.6936 76.1051 85.5215 75.9855C85.3487 75.8645 85.2001 75.6671 85.107 75.425L85.1077 75.4265ZM85.2327 75.3787C85.3175 75.599 85.4537 75.7743 85.6005 75.8769C85.7461 75.9779 85.8998 76.0091 86.0284 75.9595C86.1566 75.9102 86.2461 75.7841 86.2889 75.6109C86.3273 75.437 86.3128 75.2149 86.2284 74.9946C86.144 74.7743 86.0041 74.6 85.8592 74.4968C85.7099 74.3917 85.5599 74.3649 85.4313 74.4142C85.3026 74.4634 85.2081 74.5859 85.1708 74.7631C85.1324 74.9366 85.1501 75.1577 85.2353 75.3798L85.2327 75.3787Z" fill="#F8F8F8"/>
<path d="M86.9049 73.9072L86.7092 74.1551C86.7092 74.1551 86.6929 74.1725 86.6813 74.1772C86.6578 74.1862 86.6328 74.1804 86.6161 74.1677C86.585 74.1413 86.581 74.1007 86.6071 74.0735L86.8726 73.7283C86.8955 73.7025 86.9408 73.6964 86.9668 73.7192C86.981 73.7308 86.9882 73.7453 86.9929 73.7627L87.6321 75.4123C87.6447 75.446 87.6306 75.4837 87.594 75.4978C87.5607 75.5109 87.5216 75.4931 87.5085 75.4598L86.9085 73.9062L86.9049 73.9072Z" fill="#F8F8F8"/>
<path d="M88.0517 75.1931L88.597 74.1109C88.6615 73.979 88.6673 73.8348 88.618 73.7065C88.5757 73.5964 88.492 73.5022 88.3778 73.4445C88.2492 73.379 88.1025 73.3761 87.9782 73.4257C87.8648 73.4692 87.7699 73.5514 87.7097 73.6645L87.6539 73.7779C87.6383 73.8127 87.5959 73.8268 87.5666 73.8094C87.5318 73.7942 87.5173 73.7518 87.5347 73.7221L87.5901 73.6072C87.6651 73.4634 87.7887 73.3565 87.93 73.3003C88.0869 73.2402 88.2684 73.2395 88.4358 73.3264C88.5844 73.3996 88.6883 73.5206 88.7416 73.659C88.8025 73.8174 88.8003 74.0022 88.7173 74.1699L88.2503 75.0978L89.1014 74.771C89.134 74.7565 89.1735 74.7739 89.1869 74.809C89.1996 74.8424 89.1822 74.8815 89.1488 74.8945L88.1474 75.2826L88.1372 75.2866C88.1188 75.2935 88.0985 75.2956 88.0836 75.2862C88.0492 75.2666 88.0344 75.2282 88.0499 75.1938L88.0517 75.1931Z" fill="#F8F8F8"/>
<path d="M91.5836 72.0171L91.3035 72.6744C91.426 72.6541 91.555 72.6657 91.6749 72.7193C91.839 72.7921 91.9593 72.9258 92.0195 73.0827C92.0796 73.2396 92.0814 73.4189 92.0068 73.5834C91.9336 73.7475 91.8006 73.8693 91.6459 73.9305C91.4926 73.9896 91.3115 73.9921 91.147 73.9175C91.1129 73.9037 91.0959 73.8642 91.1126 73.8273C91.1263 73.7932 91.1655 73.7762 91.2024 73.7925C91.3329 73.8479 91.4727 73.8479 91.5963 73.8004C91.7195 73.753 91.8253 73.6588 91.8843 73.5291C91.943 73.3975 91.9405 73.2566 91.8934 73.133C91.8459 73.0099 91.7517 72.9041 91.6213 72.849C91.4916 72.7896 91.3506 72.7921 91.2271 72.8396C91.2071 72.8472 91.185 72.8443 91.1658 72.8341L91.1626 72.8356C91.1263 72.8207 91.11 72.7791 91.1274 72.7436L91.3959 72.1124L90.7068 72.3769C90.6709 72.3925 90.6318 72.3751 90.618 72.3399C90.6042 72.3033 90.6216 72.2638 90.6564 72.2504L91.4974 71.9276C91.5336 71.912 91.5727 71.9294 91.5861 71.9646C91.5901 71.9747 91.5905 71.9859 91.5887 71.9961C91.5887 72.0059 91.5861 72.0142 91.5832 72.0211L91.5836 72.0171Z" fill="#F8F8F8"/>
<path d="M93.6008 72.7487L92.6265 73.123L92.6236 73.1259L92.6189 73.1277C92.6055 73.1327 92.5899 73.1371 92.5754 73.1291C92.5392 73.1201 92.52 73.0795 92.5338 73.0454L93.0733 71.349L93.0751 71.3443C93.0877 71.307 93.1214 71.2903 93.1588 71.303C93.1718 71.3074 93.1816 71.3172 93.1903 71.3251C93.1921 71.3302 93.1954 71.3327 93.1975 71.3338L93.2008 71.3422L93.6772 72.574L93.7975 72.528C93.8341 72.5139 93.8736 72.5313 93.8863 72.5646C93.899 72.598 93.8816 72.6375 93.8464 72.6509L93.7265 72.6969L93.845 73.0056C93.8577 73.0389 93.8403 73.078 93.8051 73.0914C93.7718 73.1045 93.7327 73.0871 93.7196 73.0534L93.6012 72.7447L93.6008 72.7487ZM93.5533 72.6255L93.1461 71.5737L92.7037 72.9552L93.5548 72.6288L93.5533 72.6255Z" fill="#F8F8F8"/>
<path d="M94.3883 72.6646C94.352 72.6497 94.3361 72.6081 94.3538 72.5744C94.3691 72.5399 94.4111 72.5236 94.4455 72.5392C94.576 72.5943 94.7154 72.5943 94.839 72.5472C94.9625 72.4997 95.0647 72.407 95.1234 72.2751C95.1821 72.1436 95.1803 72.0044 95.1328 71.8809C95.0847 71.7559 94.9908 71.6504 94.8615 71.5928C94.7321 71.5352 94.5912 71.5374 94.468 71.5849C94.3426 71.6331 94.239 71.7265 94.1803 71.8581C94.1647 71.8928 94.1238 71.9102 94.0901 71.8925C94.0799 71.8907 94.0716 71.8845 94.0676 71.8783L94.0662 71.8751C94.0662 71.8751 94.0611 71.8715 94.0596 71.8678C94.0542 71.8642 94.0513 71.8559 94.0488 71.8494C94.0473 71.8457 94.047 71.8403 94.0452 71.8352L93.8517 71.0769C93.8441 71.0566 93.8477 71.0363 93.8589 71.0204C93.8651 71.0066 93.8781 70.9957 93.8948 70.9896L94.7321 70.6679C94.7683 70.6522 94.8075 70.6696 94.8209 70.7047C94.8357 70.7432 94.8176 70.7805 94.7825 70.7939L93.9984 71.095L94.1412 71.6566C94.2125 71.5682 94.306 71.4975 94.4147 71.4562C94.5712 71.3957 94.7459 71.3921 94.9129 71.4678C95.0803 71.5396 95.1959 71.6711 95.2575 71.8312C95.3162 71.9849 95.3227 72.166 95.2462 72.3312C95.1727 72.4936 95.0379 72.616 94.8828 72.6758C94.726 72.736 94.5466 72.7378 94.3828 72.6649L94.3883 72.6646Z" fill="#F8F8F8"/>
<path d="M95.6241 70.7746C95.6639 70.5085 95.8078 70.2655 96.1027 70.1409C96.1349 70.1247 96.1741 70.1422 96.19 70.1743C96.2041 70.211 96.1868 70.2502 96.1541 70.2647C95.9067 70.3731 95.7973 70.5625 95.7556 70.793C95.7342 70.9217 95.7429 71.0637 95.7672 71.2021C95.8284 71.0369 95.956 70.8959 96.1328 70.8282C96.465 70.7006 96.832 70.864 96.9578 71.1909C97.0839 71.5198 96.9219 71.8862 96.5922 72.0148C96.2701 72.1383 95.911 71.9854 95.777 71.6709C95.757 71.6347 95.7426 71.5963 95.7266 71.5546C95.6364 71.3151 95.5842 71.0347 95.6259 70.7738L95.6241 70.7746ZM95.8983 71.613C95.9034 71.6264 95.9107 71.6351 95.9161 71.6445C95.9194 71.6528 95.9212 71.6579 95.9197 71.664C96.0393 71.8804 96.3056 71.9811 96.5407 71.8909C96.8027 71.7901 96.9317 71.4977 96.8331 71.2409C96.7346 70.9836 96.4418 70.855 96.1799 70.9554C95.923 71.0543 95.794 71.3467 95.8925 71.6035L95.8965 71.6137L95.8983 71.613Z" fill="#F8F8F8"/>
<path d="M86.214 79.5742L70.541 85.6376L70.8389 86.4076L86.5118 80.3441L86.214 79.5742Z" fill="url(#paint11_linear_40079_3892)"/>
<path d="M82.2991 83.0566L71.2031 87.3494L71.5009 88.1197L82.5969 83.8269L82.2991 83.0566Z" fill="url(#paint12_linear_40079_3892)"/>
<path d="M86.5305 64.6412L79.4848 67.3669C79.2721 67.4492 79.1664 67.6883 79.2486 67.9009C79.3308 68.1136 79.57 68.2193 79.7827 68.137L86.8283 65.4113C87.041 65.329 87.1464 65.0899 87.0642 64.8773C86.9819 64.6646 86.7428 64.5589 86.5305 64.6412Z" fill="#3B3B3B"/>
<path d="M99.4428 84.3145L62.7207 91.4529L65.5784 106.154L102.301 99.0163L99.4428 84.3145Z" fill="url(#paint13_linear_40079_3892)"/>
<path opacity="0.2" d="M99.4428 84.3145L62.7207 91.4529L65.5784 106.154L102.301 99.0163L99.4428 84.3145Z" fill="black"/>
<path d="M102.834 107.814L66.6544 109.645C64.8529 109.737 63.2588 108.489 62.9146 106.718L57.7065 79.9246C57.5836 79.2923 58.2333 78.7898 58.8144 79.0677C59.4888 79.3898 60.2381 79.5264 60.985 79.4634L93.4864 76.6833C95.3317 76.5253 96.9987 77.784 97.352 79.6018L102.836 107.812C102.836 107.813 102.835 107.814 102.834 107.814Z" fill="url(#paint14_linear_40079_3892)"/>
<path d="M95.1493 94.62C95.9913 94.4565 96.5228 93.546 96.3362 92.587C96.15 91.6279 95.3163 90.983 94.4743 91.1464C93.6322 91.3102 93.1007 92.2203 93.2873 93.1797C93.4739 94.1388 94.3076 94.7837 95.1493 94.62Z" fill="#EBEBEB"/>
<path d="M95.5206 92.7455C95.6072 93.1911 95.3601 93.6143 94.9688 93.69C94.5775 93.7661 94.1898 93.4665 94.1032 93.0208C94.0166 92.5755 94.2637 92.1523 94.655 92.0763C95.0463 92.0002 95.434 92.2998 95.5206 92.7455Z" fill="#DBDBDB"/>
<path d="M160.232 31.28C157.496 31.28 155.912 32.736 155.912 34.608C155.912 36.368 157.032 37.264 159.976 37.856C161.72 38.208 162.28 38.544 162.28 39.12C162.28 39.92 161.544 40.352 160.184 40.352C158.76 40.352 157.752 40 156.92 38.624L155.608 40.192C156.504 41.472 157.864 42.16 160.264 42.16C162.792 42.16 164.6 40.976 164.6 38.992C164.6 37.232 163.528 36.352 160.68 35.824C158.824 35.488 158.248 35.104 158.248 34.4C158.248 33.648 158.92 33.088 160.248 33.088C161.672 33.088 162.552 33.664 163.096 34.8L164.616 33.312C163.544 31.904 162.2 31.28 160.232 31.28ZM173.905 37.968C173.905 35.344 172.545 33.84 170.049 33.84C167.473 33.84 166.017 35.376 166.017 38C166.017 40.624 167.521 42.16 170.177 42.16C171.985 42.16 173.217 41.472 173.729 40.192L171.937 39.536C171.713 40.176 171.105 40.528 170.177 40.528C169.105 40.528 168.401 39.984 168.177 38.832H173.841C173.873 38.624 173.905 38.192 173.905 37.968ZM170.033 35.456C171.041 35.456 171.713 36.096 171.889 37.296H168.161C168.337 36.08 168.977 35.456 170.033 35.456ZM180.757 40.048C180.421 40.336 180.053 40.496 179.525 40.496C178.837 40.496 178.421 40.16 178.421 39.392V35.632H181.013V34H178.421V31.552L176.229 32.16V34H174.773V35.632H176.229V39.744C176.229 41.504 177.317 42.16 178.901 42.16C179.749 42.16 180.581 41.92 181.093 41.504L180.757 40.048ZM187.873 34V38.288C187.873 39.776 187.041 40.432 186.001 40.432C185.137 40.432 184.609 40.032 184.609 38.736V34H182.417V39.296C182.417 41.344 183.617 42.16 185.233 42.16C186.513 42.16 187.505 41.68 188.033 40.624L188.113 42H190.065V34H187.873ZM197.075 33.84C195.795 33.84 194.835 34.528 194.387 35.552L194.307 34H192.371V45.36H194.563V40.672C195.027 41.568 195.891 42.16 197.075 42.16C199.187 42.16 200.499 40.608 200.499 37.984C200.499 35.376 199.203 33.84 197.075 33.84ZM196.419 40.48C195.267 40.48 194.563 39.6 194.563 38.08V37.92C194.563 36.368 195.283 35.52 196.419 35.52C197.587 35.52 198.291 36.368 198.291 38C198.291 39.632 197.587 40.48 196.419 40.48ZM215.481 31.44H213.145L211.449 34.592L210.633 36.256L209.833 34.592L208.137 31.44H205.785L209.529 38.048V42H211.737V38.048L215.481 31.44ZM218.957 33.84C216.381 33.84 214.861 35.392 214.861 38C214.861 40.608 216.381 42.16 218.957 42.16C221.533 42.16 223.053 40.608 223.053 38C223.053 35.392 221.533 33.84 218.957 33.84ZM218.957 35.472C220.189 35.472 220.861 36.304 220.861 38C220.861 39.696 220.189 40.528 218.957 40.528C217.725 40.528 217.053 39.696 217.053 38C217.053 36.304 217.725 35.472 218.957 35.472ZM230.341 34V38.288C230.341 39.776 229.509 40.432 228.469 40.432C227.605 40.432 227.077 40.032 227.077 38.736V34H224.885V39.296C224.885 41.344 226.085 42.16 227.701 42.16C228.981 42.16 229.973 41.68 230.501 40.624L230.581 42H232.533V34H230.341ZM239.368 33.84C238.12 33.84 237.304 34.464 236.888 35.568L236.744 34H234.84V42H237.032V37.856C237.032 36.4 237.992 35.696 238.952 35.696C239.368 35.696 239.736 35.792 239.96 35.936L240.232 34.016C240.04 33.904 239.72 33.84 239.368 33.84ZM256.287 34L254.687 40.24L252.895 34H250.735L248.943 40.24L247.343 34H245.023L247.567 42H250.095L251.775 36.352L253.519 42H256.063L258.607 34H256.287ZM267.261 40.672C266.845 40.672 266.669 40.48 266.669 40.064V36.784C266.669 34.8 265.261 33.84 263.037 33.84C261.085 33.84 259.885 34.704 259.549 36.064L261.293 36.8C261.533 35.792 262.205 35.44 263.133 35.44C263.997 35.44 264.493 35.984 264.493 36.832V37.216L262.573 37.584C260.429 37.984 259.453 38.864 259.453 40.112C259.453 41.456 260.413 42.16 261.933 42.16C263.277 42.16 264.285 41.744 264.765 40.96C264.989 41.824 265.645 42.16 266.605 42.16C267.005 42.16 267.357 42.08 267.645 41.936L267.805 40.608C267.645 40.656 267.453 40.672 267.261 40.672ZM262.621 40.672C262.045 40.672 261.709 40.4 261.709 39.888C261.709 39.36 262.077 39.104 262.781 38.944L264.493 38.56V39.392C264.493 40.24 263.453 40.672 262.621 40.672ZM271.296 30.496H269.104V39.776C269.104 41.44 269.792 42.16 271.344 42.16C271.872 42.16 272.48 42.032 272.832 41.824L273.024 40.304C272.672 40.432 272.448 40.48 272.08 40.48C271.488 40.48 271.296 40.208 271.296 39.456V30.496ZM276.406 30.496H274.214V39.776C274.214 41.44 274.902 42.16 276.454 42.16C276.982 42.16 277.59 42.032 277.942 41.824L278.134 40.304C277.782 40.432 277.558 40.48 277.19 40.48C276.598 40.48 276.406 40.208 276.406 39.456V30.496ZM286.827 37.968C286.827 35.344 285.467 33.84 282.971 33.84C280.395 33.84 278.939 35.376 278.939 38C278.939 40.624 280.443 42.16 283.099 42.16C284.907 42.16 286.139 41.472 286.651 40.192L284.859 39.536C284.635 40.176 284.027 40.528 283.099 40.528C282.027 40.528 281.323 39.984 281.099 38.832H286.763C286.795 38.624 286.827 38.192 286.827 37.968ZM282.955 35.456C283.963 35.456 284.635 36.096 284.811 37.296H281.083C281.259 36.08 281.899 35.456 282.955 35.456ZM293.679 40.048C293.343 40.336 292.975 40.496 292.447 40.496C291.759 40.496 291.343 40.16 291.343 39.392V35.632H293.935V34H291.343V31.552L289.151 32.16V34H287.695V35.632H289.151V39.744C289.151 41.504 290.239 42.16 291.823 42.16C292.671 42.16 293.503 41.92 294.015 41.504L293.679 40.048Z" fill="white"/>
<path d="M158.84 62.96C157.004 62.96 155.888 64.04 155.888 65.312C155.888 66.524 156.656 67.172 158.792 67.544C160.46 67.832 160.976 68.228 160.976 68.912C160.976 69.764 160.16 70.22 158.936 70.22C157.64 70.22 156.824 69.644 156.404 68.732L155.576 69.404C156.128 70.388 157.232 71.12 158.912 71.12C160.76 71.12 161.972 70.22 161.972 68.864C161.972 67.64 161.216 66.968 159.092 66.608C157.424 66.32 156.896 65.948 156.896 65.204C156.896 64.448 157.592 63.86 158.852 63.86C160.016 63.86 160.592 64.268 161.072 65.312L161.9 64.64C161.288 63.536 160.292 62.96 158.84 62.96ZM168.952 67.688C168.952 66.14 168.004 64.88 166.264 64.88C164.451 64.88 163.432 66.056 163.432 68C163.432 69.944 164.524 71.12 166.336 71.12C167.632 71.12 168.376 70.628 168.832 69.812L168.028 69.392C167.812 69.968 167.212 70.28 166.336 70.28C165.232 70.28 164.5 69.572 164.38 68.36H168.904C168.928 68.192 168.952 67.964 168.952 67.688ZM166.264 65.72C167.284 65.72 167.896 66.404 168.028 67.508H164.392C164.536 66.38 165.196 65.72 166.264 65.72ZM173.936 69.776C173.66 70.052 173.348 70.22 172.916 70.22C172.388 70.22 172.016 69.932 172.016 69.344V65.828H174.236V65H172.016V63.296L171.056 63.56V65H169.856V65.828H171.056V69.512C171.068 70.676 171.836 71.12 172.724 71.12C173.384 71.12 173.9 70.916 174.272 70.58L173.936 69.776ZM183.954 65V68.264C183.954 69.68 183.054 70.28 182.034 70.28C181.17 70.28 180.618 69.908 180.618 68.672V65H179.658V68.924C179.658 70.508 180.678 71.12 181.866 71.12C182.826 71.12 183.594 70.808 184.014 70.088L184.074 71H184.914V65H183.954ZM190.099 64.88C189.151 64.88 188.395 65.36 188.047 66.044L187.987 65H187.147V73.52H188.107V70.064C188.479 70.688 189.199 71.12 190.099 71.12C191.767 71.12 192.835 69.956 192.835 68C192.835 66.044 191.767 64.88 190.099 64.88ZM189.991 70.28C188.851 70.28 188.107 69.428 188.107 68.072V67.928C188.107 66.572 188.851 65.72 189.991 65.72C191.167 65.72 191.875 66.608 191.875 68C191.875 69.392 191.167 70.28 189.991 70.28ZM203.591 65H202.559L201.155 68.792L200.723 69.98L200.351 68.912L198.851 65H197.759L200.267 70.988L199.955 71.768C199.655 72.56 199.283 72.74 198.863 72.74C198.527 72.74 198.167 72.644 197.891 72.26L197.555 73.076C197.891 73.436 198.275 73.58 198.875 73.58C199.763 73.58 200.303 73.184 200.771 72.008L203.591 65ZM207.445 64.88C205.633 64.88 204.541 66.056 204.541 68C204.541 69.944 205.633 71.12 207.445 71.12C209.257 71.12 210.349 69.944 210.349 68C210.349 66.056 209.257 64.88 207.445 64.88ZM207.445 65.708C208.657 65.708 209.389 66.572 209.389 68C209.389 69.428 208.657 70.292 207.445 70.292C206.233 70.292 205.501 69.428 205.501 68C205.501 66.572 206.233 65.708 207.445 65.708ZM216.45 65V68.264C216.45 69.68 215.55 70.28 214.53 70.28C213.666 70.28 213.114 69.908 213.114 68.672V65H212.154V68.924C212.154 70.508 213.174 71.12 214.362 71.12C215.322 71.12 216.09 70.808 216.51 70.088L216.57 71H217.41V65H216.45ZM222.475 64.88C221.539 64.88 220.891 65.252 220.555 65.984L220.423 65H219.643V71H220.603V67.76C220.603 66.416 221.467 65.78 222.187 65.78C222.499 65.78 222.763 65.84 222.943 65.936L223.135 65C222.955 64.904 222.679 64.88 222.475 64.88ZM235.725 65L234.213 69.884L232.581 65H231.621L229.989 69.884L228.477 65H227.409L229.497 71H230.457L232.053 66.224L233.745 71H234.705L236.793 65H235.725ZM243.149 70.304C242.813 70.304 242.693 70.16 242.693 69.872V66.92C242.693 65.528 241.697 64.88 240.329 64.88C239.165 64.88 238.217 65.456 237.905 66.344L238.613 66.86C238.937 66.104 239.537 65.72 240.329 65.72C241.229 65.72 241.733 66.248 241.733 67.04V67.376L240.137 67.64C238.589 67.904 237.797 68.612 237.797 69.512C237.797 70.592 238.709 71.12 239.837 71.12C240.605 71.12 241.385 70.796 241.769 70.232C241.877 70.904 242.261 71.12 242.849 71.12C243.149 71.12 243.401 71.06 243.569 71L243.629 70.244C243.485 70.28 243.305 70.304 243.149 70.304ZM239.885 70.28C239.201 70.28 238.793 70.016 238.793 69.512C238.793 68.948 239.333 68.6 240.389 68.408L241.733 68.156V68.984C241.733 69.776 240.845 70.28 239.885 70.28ZM245.938 62.24H244.978V69.512C244.978 70.604 245.446 71.12 246.418 71.12C246.73 71.12 247.054 71.06 247.306 70.952L247.462 70.028C247.114 70.16 246.91 70.196 246.586 70.196C246.094 70.196 245.938 70.004 245.938 69.392V62.24ZM249.606 62.24H248.646V69.512C248.646 70.604 249.114 71.12 250.086 71.12C250.398 71.12 250.722 71.06 250.974 70.952L251.13 70.028C250.782 70.16 250.578 70.196 250.254 70.196C249.762 70.196 249.606 70.004 249.606 69.392V62.24ZM257.51 67.688C257.51 66.14 256.562 64.88 254.822 64.88C253.01 64.88 251.99 66.056 251.99 68C251.99 69.944 253.082 71.12 254.894 71.12C256.19 71.12 256.934 70.628 257.39 69.812L256.586 69.392C256.37 69.968 255.77 70.28 254.894 70.28C253.79 70.28 253.058 69.572 252.938 68.36H257.462C257.486 68.192 257.51 67.964 257.51 67.688ZM254.822 65.72C255.842 65.72 256.454 66.404 256.586 67.508H252.95C253.094 66.38 253.754 65.72 254.822 65.72ZM262.495 69.776C262.219 70.052 261.907 70.22 261.475 70.22C260.947 70.22 260.575 69.932 260.575 69.344V65.828H262.795V65H260.575V63.296L259.615 63.56V65H258.415V65.828H259.615V69.512C259.627 70.676 260.395 71.12 261.283 71.12C261.943 71.12 262.459 70.916 262.831 70.58L262.495 69.776ZM270.808 64.88C268.996 64.88 267.904 66.056 267.904 68C267.904 69.944 268.996 71.12 270.808 71.12C272.62 71.12 273.712 69.944 273.712 68C273.712 66.056 272.62 64.88 270.808 64.88ZM270.808 65.708C272.02 65.708 272.752 66.572 272.752 68C272.752 69.428 272.02 70.292 270.808 70.292C269.596 70.292 268.864 69.428 268.864 68C268.864 66.572 269.596 65.708 270.808 65.708ZM276.899 64.088C276.899 63.368 277.295 63.056 277.991 63.056C278.267 63.056 278.483 63.116 278.675 63.236L278.927 62.456C278.711 62.276 278.327 62.18 277.907 62.18C276.587 62.18 275.939 62.924 275.939 63.992V65H274.739V65.828H275.939V71H276.899V65.828H278.903V65H276.899V64.088ZM158.648 81.88C156.836 81.88 155.744 83.056 155.744 85C155.744 86.944 156.836 88.12 158.648 88.12C159.92 88.12 160.784 87.46 161.192 86.356L160.304 86.044C160.124 86.836 159.56 87.28 158.624 87.28C157.424 87.28 156.704 86.428 156.704 85C156.704 83.572 157.424 82.72 158.624 82.72C159.452 82.72 159.968 83.14 160.22 83.908L161.132 83.476C160.688 82.492 159.884 81.88 158.648 81.88ZM165.805 81.88C164.989 81.88 164.269 82.18 163.849 82.9V79.24H162.889V88H163.849V84.82C163.849 83.284 164.833 82.72 165.709 82.72C166.537 82.72 167.185 83.164 167.185 84.496V88H168.145V84.16C168.145 82.612 167.089 81.88 165.805 81.88ZM172.851 81.88C171.039 81.88 169.947 83.056 169.947 85C169.947 86.944 171.039 88.12 172.851 88.12C174.663 88.12 175.755 86.944 175.755 85C175.755 83.056 174.663 81.88 172.851 81.88ZM172.851 82.708C174.063 82.708 174.795 83.572 174.795 85C174.795 86.428 174.063 87.292 172.851 87.292C171.639 87.292 170.907 86.428 170.907 85C170.907 83.572 171.639 82.708 172.851 82.708ZM178.1 80.848C178.532 80.848 178.82 80.56 178.82 80.128C178.82 79.696 178.532 79.408 178.1 79.408C177.668 79.408 177.38 79.696 177.38 80.128C177.38 80.56 177.668 80.848 178.1 80.848ZM178.58 82H177.62V88H178.58V82ZM183.339 81.88C181.527 81.88 180.435 83.056 180.435 85C180.435 86.944 181.527 88.12 183.339 88.12C184.611 88.12 185.475 87.46 185.883 86.356L184.995 86.044C184.815 86.836 184.251 87.28 183.315 87.28C182.115 87.28 181.395 86.428 181.395 85C181.395 83.572 182.115 82.72 183.315 82.72C184.143 82.72 184.659 83.14 184.911 83.908L185.823 83.476C185.379 82.492 184.575 81.88 183.339 81.88ZM192.729 84.688C192.729 83.14 191.781 81.88 190.041 81.88C188.229 81.88 187.209 83.056 187.209 85C187.209 86.944 188.301 88.12 190.113 88.12C191.409 88.12 192.153 87.628 192.609 86.812L191.805 86.392C191.589 86.968 190.989 87.28 190.113 87.28C189.009 87.28 188.277 86.572 188.157 85.36H192.681C192.705 85.192 192.729 84.964 192.729 84.688ZM190.041 82.72C191.061 82.72 191.673 83.404 191.805 84.508H188.169C188.313 83.38 188.973 82.72 190.041 82.72ZM195.034 86.56C194.566 86.56 194.254 86.872 194.254 87.34C194.254 87.808 194.566 88.12 195.034 88.12C195.502 88.12 195.814 87.808 195.814 87.34C195.814 86.872 195.502 86.56 195.034 86.56ZM208.395 85.972L207.435 85.612C207.087 86.68 206.259 87.22 205.203 87.22C203.559 87.22 202.539 86.032 202.539 84.04C202.539 82.036 203.631 80.86 205.251 80.86C206.307 80.86 206.955 81.34 207.303 82.252L208.251 81.808C207.747 80.608 206.715 79.96 205.179 79.96C202.971 79.96 201.531 81.532 201.531 84.04C201.531 86.548 202.947 88.12 205.203 88.12C206.691 88.12 207.891 87.328 208.395 85.972ZM212.589 81.88C210.777 81.88 209.685 83.056 209.685 85C209.685 86.944 210.777 88.12 212.589 88.12C214.401 88.12 215.493 86.944 215.493 85C215.493 83.056 214.401 81.88 212.589 81.88ZM212.589 82.708C213.801 82.708 214.533 83.572 214.533 85C214.533 86.428 213.801 87.292 212.589 87.292C211.377 87.292 210.645 86.428 210.645 85C210.645 83.572 211.377 82.708 212.589 82.708ZM220.274 81.88C219.446 81.88 218.678 82.18 218.258 82.936L218.198 82H217.358V88H218.318V84.808C218.318 83.272 219.302 82.72 220.178 82.72C221.006 82.72 221.654 83.164 221.654 84.496V88H222.614V84.16C222.614 82.612 221.558 81.88 220.274 81.88ZM227.704 81.88C226.876 81.88 226.108 82.18 225.688 82.936L225.628 82H224.788V88H225.748V84.808C225.748 83.272 226.732 82.72 227.608 82.72C228.436 82.72 229.084 83.164 229.084 84.496V88H230.044V84.16C230.044 82.612 228.988 81.88 227.704 81.88ZM237.366 84.688C237.366 83.14 236.418 81.88 234.678 81.88C232.866 81.88 231.846 83.056 231.846 85C231.846 86.944 232.938 88.12 234.75 88.12C236.046 88.12 236.79 87.628 237.246 86.812L236.442 86.392C236.226 86.968 235.626 87.28 234.75 87.28C233.646 87.28 232.914 86.572 232.794 85.36H237.318C237.342 85.192 237.366 84.964 237.366 84.688ZM234.678 82.72C235.698 82.72 236.31 83.404 236.442 84.508H232.806C232.95 83.38 233.61 82.72 234.678 82.72ZM241.722 81.88C239.91 81.88 238.818 83.056 238.818 85C238.818 86.944 239.91 88.12 241.722 88.12C242.994 88.12 243.858 87.46 244.266 86.356L243.378 86.044C243.198 86.836 242.634 87.28 241.698 87.28C240.498 87.28 239.778 86.428 239.778 85C239.778 83.572 240.498 82.72 241.698 82.72C242.526 82.72 243.042 83.14 243.294 83.908L244.206 83.476C243.762 82.492 242.958 81.88 241.722 81.88ZM249.3 86.776C249.024 87.052 248.712 87.22 248.28 87.22C247.752 87.22 247.38 86.932 247.38 86.344V82.828H249.6V82H247.38V80.296L246.42 80.56V82H245.22V82.828H246.42V86.512C246.432 87.676 247.2 88.12 248.088 88.12C248.748 88.12 249.264 87.916 249.636 87.58L249.3 86.776ZM255.561 80.848C255.993 80.848 256.281 80.56 256.281 80.128C256.281 79.696 255.993 79.408 255.561 79.408C255.129 79.408 254.841 79.696 254.841 80.128C254.841 80.56 255.129 80.848 255.561 80.848ZM256.041 82H255.081V88H256.041V82ZM261.604 86.776C261.328 87.052 261.016 87.22 260.584 87.22C260.056 87.22 259.684 86.932 259.684 86.344V82.828H261.904V82H259.684V80.296L258.724 80.56V82H257.524V82.828H258.724V86.512C258.736 87.676 259.504 88.12 260.392 88.12C261.052 88.12 261.568 87.916 261.94 87.58L261.604 86.776ZM270.487 86.776C270.211 87.052 269.899 87.22 269.467 87.22C268.939 87.22 268.567 86.932 268.567 86.344V82.828H270.787V82H268.567V80.296L267.607 80.56V82H266.407V82.828H267.607V86.512C267.619 87.676 268.387 88.12 269.275 88.12C269.935 88.12 270.451 87.916 270.823 87.58L270.487 86.776ZM274.711 81.88C272.899 81.88 271.807 83.056 271.807 85C271.807 86.944 272.899 88.12 274.711 88.12C276.523 88.12 277.615 86.944 277.615 85C277.615 83.056 276.523 81.88 274.711 81.88ZM274.711 82.708C275.923 82.708 276.655 83.572 276.655 85C276.655 86.428 275.923 87.292 274.711 87.292C273.499 87.292 272.767 86.428 272.767 85C272.767 83.572 273.499 82.708 274.711 82.708ZM286.671 86.776C286.395 87.052 286.083 87.22 285.651 87.22C285.123 87.22 284.751 86.932 284.751 86.344V82.828H286.971V82H284.751V80.296L283.791 80.56V82H282.591V82.828H283.791V86.512C283.803 87.676 284.571 88.12 285.459 88.12C286.119 88.12 286.635 87.916 287.007 87.58L286.671 86.776ZM291.278 81.88C290.462 81.88 289.742 82.18 289.322 82.9V79.24H288.362V88H289.322V84.82C289.322 83.284 290.306 82.72 291.182 82.72C292.01 82.72 292.658 83.164 292.658 84.496V88H293.618V84.16C293.618 82.612 292.562 81.88 291.278 81.88ZM300.94 84.688C300.94 83.14 299.992 81.88 298.252 81.88C296.44 81.88 295.42 83.056 295.42 85C295.42 86.944 296.512 88.12 298.324 88.12C299.62 88.12 300.364 87.628 300.82 86.812L300.016 86.392C299.8 86.968 299.2 87.28 298.324 87.28C297.22 87.28 296.488 86.572 296.368 85.36H300.892C300.916 85.192 300.94 84.964 300.94 84.688ZM298.252 82.72C299.272 82.72 299.884 83.404 300.016 84.508H296.38C296.524 83.38 297.184 82.72 298.252 82.72ZM162.512 97.08H161.6V102.672L161.648 103.944H161.636L160.784 102.36L157.484 97.08H156.296V105H157.208V99.408L157.16 98.136H157.172L158.012 99.696L161.324 105H162.512V97.08ZM170.653 97.98V97.08H165.109V105H166.069V101.436H169.645V100.536H166.069V97.98H170.653ZM178.001 97.08H171.521V97.98H174.281V105H175.241V97.98H178.001V97.08ZM190.229 98.88C189.473 98.88 188.513 99.24 188.141 100.056C187.745 99.252 186.917 98.88 186.077 98.88C185.333 98.88 184.589 99.204 184.157 99.936L184.097 99H183.257V105H184.217V101.796C184.217 100.308 185.201 99.72 185.993 99.72C186.785 99.72 187.409 100.164 187.409 101.256V105H188.369V101.712C188.369 100.428 189.209 99.72 190.145 99.72C190.937 99.72 191.561 100.164 191.561 101.256V105H192.521V101.16C192.521 99.576 191.381 98.88 190.229 98.88ZM199.614 104.304C199.278 104.304 199.158 104.16 199.158 103.872V100.92C199.158 99.528 198.162 98.88 196.794 98.88C195.63 98.88 194.682 99.456 194.37 100.344L195.078 100.86C195.402 100.104 196.002 99.72 196.794 99.72C197.694 99.72 198.198 100.248 198.198 101.04V101.376L196.602 101.64C195.054 101.904 194.262 102.612 194.262 103.512C194.262 104.592 195.174 105.12 196.302 105.12C197.07 105.12 197.85 104.796 198.234 104.232C198.342 104.904 198.726 105.12 199.314 105.12C199.614 105.12 199.866 105.06 200.034 105L200.094 104.244C199.95 104.28 199.77 104.304 199.614 104.304ZM196.35 104.28C195.666 104.28 195.258 104.016 195.258 103.512C195.258 102.948 195.798 102.6 196.854 102.408L198.198 102.156V102.984C198.198 103.776 197.31 104.28 196.35 104.28ZM204.323 98.88C203.387 98.88 202.739 99.252 202.403 99.984L202.271 99H201.491V105H202.451V101.76C202.451 100.416 203.315 99.78 204.035 99.78C204.347 99.78 204.611 99.84 204.791 99.936L204.983 99C204.803 98.904 204.527 98.88 204.323 98.88ZM210.637 105H211.801L209.317 101.34L211.657 99H210.457L207.349 102.108V96.24H206.389V105H207.349V103.308L208.621 102.036L210.637 105ZM218.135 101.688C218.135 100.14 217.187 98.88 215.447 98.88C213.635 98.88 212.615 100.056 212.615 102C212.615 103.944 213.707 105.12 215.519 105.12C216.815 105.12 217.559 104.628 218.015 103.812L217.211 103.392C216.995 103.968 216.395 104.28 215.519 104.28C214.415 104.28 213.683 103.572 213.563 102.36H218.087C218.111 102.192 218.135 101.964 218.135 101.688ZM215.447 99.72C216.467 99.72 217.079 100.404 217.211 101.508H213.575C213.719 100.38 214.379 99.72 215.447 99.72ZM223.12 103.776C222.844 104.052 222.532 104.22 222.1 104.22C221.572 104.22 221.2 103.932 221.2 103.344V99.828H223.42V99H221.2V97.296L220.24 97.56V99H219.04V99.828H220.24V103.512C220.252 104.676 221.02 105.12 221.908 105.12C222.568 105.12 223.084 104.916 223.456 104.58L223.12 103.776ZM231.853 98.88C230.953 98.88 230.233 99.312 229.861 99.936V96.24H228.901V105H229.741L229.801 103.956C230.149 104.64 230.905 105.12 231.853 105.12C233.521 105.12 234.589 103.956 234.589 102C234.589 100.044 233.521 98.88 231.853 98.88ZM231.745 104.28C230.605 104.28 229.861 103.428 229.861 102.072V101.928C229.861 100.572 230.605 99.72 231.745 99.72C232.921 99.72 233.629 100.608 233.629 102C233.629 103.392 232.921 104.28 231.745 104.28ZM241.384 99H240.352L238.948 102.792L238.516 103.98L238.144 102.912L236.644 99H235.552L238.06 104.988L237.748 105.768C237.448 106.56 237.076 106.74 236.656 106.74C236.32 106.74 235.96 106.644 235.684 106.26L235.348 107.076C235.684 107.436 236.068 107.58 236.668 107.58C237.556 107.58 238.096 107.184 238.564 106.008L241.384 99ZM249.023 98.88C247.211 98.88 246.119 100.056 246.119 102C246.119 103.944 247.211 105.12 249.023 105.12C250.295 105.12 251.159 104.46 251.567 103.356L250.679 103.044C250.499 103.836 249.935 104.28 248.999 104.28C247.799 104.28 247.079 103.428 247.079 102C247.079 100.572 247.799 99.72 248.999 99.72C249.827 99.72 250.343 100.14 250.595 100.908L251.507 100.476C251.063 99.492 250.259 98.88 249.023 98.88ZM254.176 96.24H253.216V103.512C253.216 104.604 253.684 105.12 254.656 105.12C254.968 105.12 255.292 105.06 255.544 104.952L255.7 104.028C255.352 104.16 255.148 104.196 254.824 104.196C254.332 104.196 254.176 104.004 254.176 103.392V96.24ZM257.412 97.848C257.844 97.848 258.132 97.56 258.132 97.128C258.132 96.696 257.844 96.408 257.412 96.408C256.98 96.408 256.692 96.696 256.692 97.128C256.692 97.56 256.98 97.848 257.412 97.848ZM257.892 99H256.932V105H257.892V99ZM262.652 98.88C260.84 98.88 259.748 100.056 259.748 102C259.748 103.944 260.84 105.12 262.652 105.12C263.924 105.12 264.788 104.46 265.196 103.356L264.308 103.044C264.128 103.836 263.564 104.28 262.628 104.28C261.428 104.28 260.708 103.428 260.708 102C260.708 100.572 261.428 99.72 262.628 99.72C263.456 99.72 263.972 100.14 264.224 100.908L265.136 100.476C264.692 99.492 263.888 98.88 262.652 98.88ZM271.141 105H272.305L269.821 101.34L272.161 99H270.961L267.853 102.108V96.24H266.893V105H267.853V103.308L269.125 102.036L271.141 105ZM274.182 97.848C274.614 97.848 274.902 97.56 274.902 97.128C274.902 96.696 274.614 96.408 274.182 96.408C273.75 96.408 273.462 96.696 273.462 97.128C273.462 97.56 273.75 97.848 274.182 97.848ZM274.662 99H273.702V105H274.662V99ZM279.805 98.88C278.977 98.88 278.209 99.18 277.789 99.936L277.729 99H276.889V105H277.849V101.808C277.849 100.272 278.833 99.72 279.709 99.72C280.537 99.72 281.185 100.164 281.185 101.496V105H282.145V101.16C282.145 99.612 281.089 98.88 279.805 98.88ZM287.667 104.232H285.675C285.207 104.232 284.883 104.004 284.883 103.584C284.883 103.176 285.075 102.936 285.555 102.828C285.819 102.9 286.131 102.936 286.479 102.936C287.919 102.936 288.939 102.096 288.939 100.908C288.939 100.284 288.663 99.756 288.183 99.396C288.351 98.964 288.807 98.736 289.611 98.736L289.395 97.896C288.495 97.896 287.931 98.292 287.703 99.12C287.343 98.964 286.935 98.88 286.479 98.88C285.039 98.88 284.019 99.72 284.019 100.908C284.019 101.604 284.319 102.192 284.895 102.552C284.367 102.732 283.995 103.104 283.995 103.728C283.995 104.256 284.355 104.616 284.811 104.832C284.151 105.012 283.755 105.444 283.755 105.996C283.755 106.896 284.619 107.58 286.515 107.58C288.135 107.58 289.479 106.848 289.479 105.66C289.479 104.796 288.807 104.232 287.667 104.232ZM286.479 99.66C287.307 99.66 287.943 100.164 287.943 100.908C287.943 101.652 287.307 102.156 286.479 102.156C285.651 102.156 285.015 101.652 285.015 100.908C285.015 100.164 285.651 99.66 286.479 99.66ZM286.623 106.776C285.303 106.776 284.643 106.392 284.643 105.804C284.643 105.348 285.039 105.06 285.795 105.06H287.403C288.303 105.06 288.591 105.336 288.591 105.768C288.591 106.296 287.895 106.776 286.623 106.776ZM159.452 120.776C159.176 121.052 158.864 121.22 158.432 121.22C157.904 121.22 157.532 120.932 157.532 120.344V116.828H159.752V116H157.532V114.296L156.572 114.56V116H155.372V116.828H156.572V120.512C156.584 121.676 157.352 122.12 158.24 122.12C158.9 122.12 159.416 121.916 159.788 121.58L159.452 120.776ZM164.059 115.88C163.243 115.88 162.523 116.18 162.103 116.9V113.24H161.143V122H162.103V118.82C162.103 117.284 163.087 116.72 163.963 116.72C164.791 116.72 165.439 117.164 165.439 118.496V122H166.399V118.16C166.399 116.612 165.343 115.88 164.059 115.88ZM173.721 118.688C173.721 117.14 172.773 115.88 171.033 115.88C169.221 115.88 168.201 117.056 168.201 119C168.201 120.944 169.293 122.12 171.105 122.12C172.401 122.12 173.145 121.628 173.601 120.812L172.797 120.392C172.581 120.968 171.981 121.28 171.105 121.28C170.001 121.28 169.269 120.572 169.149 119.36H173.673C173.697 119.192 173.721 118.964 173.721 118.688ZM171.033 116.72C172.053 116.72 172.665 117.404 172.797 118.508H169.161C169.305 117.38 169.965 116.72 171.033 116.72ZM187.01 116L185.498 120.884L183.866 116H182.906L181.274 120.884L179.762 116H178.694L180.782 122H181.742L183.338 117.224L185.03 122H185.99L188.078 116H187.01ZM194.434 121.304C194.098 121.304 193.978 121.16 193.978 120.872V117.92C193.978 116.528 192.982 115.88 191.614 115.88C190.45 115.88 189.502 116.456 189.19 117.344L189.898 117.86C190.222 117.104 190.822 116.72 191.614 116.72C192.514 116.72 193.018 117.248 193.018 118.04V118.376L191.422 118.64C189.874 118.904 189.082 119.612 189.082 120.512C189.082 121.592 189.994 122.12 191.122 122.12C191.89 122.12 192.67 121.796 193.054 121.232C193.162 121.904 193.546 122.12 194.134 122.12C194.434 122.12 194.686 122.06 194.854 122L194.914 121.244C194.77 121.28 194.59 121.304 194.434 121.304ZM191.17 121.28C190.486 121.28 190.078 121.016 190.078 120.512C190.078 119.948 190.618 119.6 191.674 119.408L193.018 119.156V119.984C193.018 120.776 192.13 121.28 191.17 121.28ZM197.223 113.24H196.263V120.512C196.263 121.604 196.731 122.12 197.703 122.12C198.015 122.12 198.339 122.06 198.591 121.952L198.747 121.028C198.399 121.16 198.195 121.196 197.871 121.196C197.379 121.196 197.223 121.004 197.223 120.392V113.24ZM200.891 113.24H199.931V120.512C199.931 121.604 200.399 122.12 201.371 122.12C201.683 122.12 202.007 122.06 202.259 121.952L202.415 121.028C202.067 121.16 201.863 121.196 201.539 121.196C201.047 121.196 200.891 121.004 200.891 120.392V113.24ZM208.795 118.688C208.795 117.14 207.847 115.88 206.107 115.88C204.295 115.88 203.275 117.056 203.275 119C203.275 120.944 204.367 122.12 206.179 122.12C207.475 122.12 208.219 121.628 208.675 120.812L207.871 120.392C207.655 120.968 207.055 121.28 206.179 121.28C205.075 121.28 204.343 120.572 204.223 119.36H208.747C208.771 119.192 208.795 118.964 208.795 118.688ZM206.107 116.72C207.127 116.72 207.739 117.404 207.871 118.508H204.235C204.379 117.38 205.039 116.72 206.107 116.72ZM213.78 120.776C213.504 121.052 213.192 121.22 212.76 121.22C212.232 121.22 211.86 120.932 211.86 120.344V116.828H214.08V116H211.86V114.296L210.9 114.56V116H209.7V116.828H210.9V120.512C210.912 121.676 211.68 122.12 212.568 122.12C213.228 122.12 213.744 121.916 214.116 121.58L213.78 120.776ZM220.041 114.848C220.473 114.848 220.761 114.56 220.761 114.128C220.761 113.696 220.473 113.408 220.041 113.408C219.609 113.408 219.321 113.696 219.321 114.128C219.321 114.56 219.609 114.848 220.041 114.848ZM220.521 116H219.561V122H220.521V116ZM225.281 115.88C223.469 115.88 222.377 117.056 222.377 119C222.377 120.944 223.469 122.12 225.281 122.12C226.553 122.12 227.417 121.46 227.825 120.356L226.937 120.044C226.757 120.836 226.193 121.28 225.257 121.28C224.057 121.28 223.337 120.428 223.337 119C223.337 117.572 224.057 116.72 225.257 116.72C226.085 116.72 226.601 117.14 226.853 117.908L227.765 117.476C227.321 116.492 226.517 115.88 225.281 115.88ZM232.054 115.88C230.242 115.88 229.15 117.056 229.15 119C229.15 120.944 230.242 122.12 232.054 122.12C233.866 122.12 234.958 120.944 234.958 119C234.958 117.056 233.866 115.88 232.054 115.88ZM232.054 116.708C233.266 116.708 233.998 117.572 233.998 119C233.998 120.428 233.266 121.292 232.054 121.292C230.842 121.292 230.11 120.428 230.11 119C230.11 117.572 230.842 116.708 232.054 116.708ZM239.739 115.88C238.911 115.88 238.143 116.18 237.723 116.936L237.663 116H236.823V122H237.783V118.808C237.783 117.272 238.767 116.72 239.643 116.72C240.471 116.72 241.119 117.164 241.119 118.496V122H242.079V118.16C242.079 116.612 241.023 115.88 239.739 115.88ZM248.823 114.848C249.255 114.848 249.543 114.56 249.543 114.128C249.543 113.696 249.255 113.408 248.823 113.408C248.391 113.408 248.103 113.696 248.103 114.128C248.103 114.56 248.391 114.848 248.823 114.848ZM249.303 116H248.343V122H249.303V116ZM254.446 115.88C253.618 115.88 252.85 116.18 252.43 116.936L252.37 116H251.53V122H252.49V118.808C252.49 117.272 253.474 116.72 254.35 116.72C255.178 116.72 255.826 117.164 255.826 118.496V122H256.786V118.16C256.786 116.612 255.73 115.88 254.446 115.88ZM266.151 120.776C265.875 121.052 265.563 121.22 265.131 121.22C264.603 121.22 264.231 120.932 264.231 120.344V116.828H266.451V116H264.231V114.296L263.271 114.56V116H262.071V116.828H263.271V120.512C263.283 121.676 264.051 122.12 264.939 122.12C265.599 122.12 266.115 121.916 266.487 121.58L266.151 120.776ZM270.759 115.88C269.943 115.88 269.223 116.18 268.803 116.9V113.24H267.843V122H268.803V118.82C268.803 117.284 269.787 116.72 270.663 116.72C271.491 116.72 272.139 117.164 272.139 118.496V122H273.099V118.16C273.099 116.612 272.043 115.88 270.759 115.88ZM280.42 118.688C280.42 117.14 279.472 115.88 277.732 115.88C275.92 115.88 274.9 117.056 274.9 119C274.9 120.944 275.992 122.12 277.804 122.12C279.1 122.12 279.844 121.628 280.3 120.812L279.496 120.392C279.28 120.968 278.68 121.28 277.804 121.28C276.7 121.28 275.968 120.572 275.848 119.36H280.372C280.396 119.192 280.42 118.964 280.42 118.688ZM277.732 116.72C278.752 116.72 279.364 117.404 279.496 118.508H275.86C276.004 117.38 276.664 116.72 277.732 116.72ZM289.436 120.776C289.16 121.052 288.848 121.22 288.416 121.22C287.888 121.22 287.516 120.932 287.516 120.344V116.828H289.736V116H287.516V114.296L286.556 114.56V116H285.356V116.828H286.556V120.512C286.568 121.676 287.336 122.12 288.224 122.12C288.884 122.12 289.4 121.916 289.772 121.58L289.436 120.776ZM293.66 115.88C291.848 115.88 290.756 117.056 290.756 119C290.756 120.944 291.848 122.12 293.66 122.12C295.472 122.12 296.564 120.944 296.564 119C296.564 117.056 295.472 115.88 293.66 115.88ZM293.66 116.708C294.872 116.708 295.604 117.572 295.604 119C295.604 120.428 294.872 121.292 293.66 121.292C292.448 121.292 291.716 120.428 291.716 119C291.716 117.572 292.448 116.708 293.66 116.708ZM301.381 115.88C300.433 115.88 299.677 116.36 299.329 117.044L299.269 116H298.429V124.52H299.389V121.064C299.761 121.688 300.48 122.12 301.381 122.12C303.049 122.12 304.117 120.956 304.117 119C304.117 117.044 303.049 115.88 301.381 115.88ZM301.273 121.28C300.133 121.28 299.389 120.428 299.389 119.072V118.928C299.389 117.572 300.133 116.72 301.273 116.72C302.449 116.72 303.157 117.608 303.157 119C303.157 120.392 302.449 121.28 301.273 121.28ZM158.948 132.88C158.012 132.88 157.364 133.252 157.028 133.984L156.896 133H156.116V139H157.076V135.76C157.076 134.416 157.94 133.78 158.66 133.78C158.972 133.78 159.236 133.84 159.416 133.936L159.608 133C159.428 132.904 159.152 132.88 158.948 132.88ZM161.494 131.848C161.926 131.848 162.214 131.56 162.214 131.128C162.214 130.696 161.926 130.408 161.494 130.408C161.062 130.408 160.774 130.696 160.774 131.128C160.774 131.56 161.062 131.848 161.494 131.848ZM161.974 133H161.014V139H161.974V133ZM167.55 138.232H165.558C165.09 138.232 164.766 138.004 164.766 137.584C164.766 137.176 164.958 136.936 165.438 136.828C165.702 136.9 166.014 136.936 166.362 136.936C167.802 136.936 168.822 136.096 168.822 134.908C168.822 134.284 168.546 133.756 168.066 133.396C168.234 132.964 168.69 132.736 169.494 132.736L169.278 131.896C168.378 131.896 167.814 132.292 167.586 133.12C167.226 132.964 166.818 132.88 166.362 132.88C164.922 132.88 163.902 133.72 163.902 134.908C163.902 135.604 164.202 136.192 164.778 136.552C164.25 136.732 163.878 137.104 163.878 137.728C163.878 138.256 164.238 138.616 164.694 138.832C164.034 139.012 163.638 139.444 163.638 139.996C163.638 140.896 164.502 141.58 166.398 141.58C168.018 141.58 169.362 140.848 169.362 139.66C169.362 138.796 168.69 138.232 167.55 138.232ZM166.362 133.66C167.19 133.66 167.826 134.164 167.826 134.908C167.826 135.652 167.19 136.156 166.362 136.156C165.534 136.156 164.898 135.652 164.898 134.908C164.898 134.164 165.534 133.66 166.362 133.66ZM166.506 140.776C165.186 140.776 164.526 140.392 164.526 139.804C164.526 139.348 164.922 139.06 165.678 139.06H167.286C168.186 139.06 168.474 139.336 168.474 139.768C168.474 140.296 167.778 140.776 166.506 140.776ZM173.704 132.88C172.888 132.88 172.168 133.18 171.748 133.9V130.24H170.788V139H171.748V135.82C171.748 134.284 172.732 133.72 173.608 133.72C174.436 133.72 175.084 134.164 175.084 135.496V139H176.044V135.16C176.044 133.612 174.988 132.88 173.704 132.88ZM181.472 137.776C181.196 138.052 180.884 138.22 180.452 138.22C179.924 138.22 179.552 137.932 179.552 137.344V133.828H181.772V133H179.552V131.296L178.592 131.56V133H177.392V133.828H178.592V137.512C178.604 138.676 179.372 139.12 180.26 139.12C180.92 139.12 181.436 138.916 181.808 138.58L181.472 137.776ZM189.785 132.88C187.973 132.88 186.881 134.056 186.881 136C186.881 137.944 187.973 139.12 189.785 139.12C191.057 139.12 191.921 138.46 192.329 137.356L191.441 137.044C191.261 137.836 190.697 138.28 189.761 138.28C188.561 138.28 187.841 137.428 187.841 136C187.841 134.572 188.561 133.72 189.761 133.72C190.589 133.72 191.105 134.14 191.357 134.908L192.269 134.476C191.825 133.492 191.021 132.88 189.785 132.88ZM196.558 132.88C194.746 132.88 193.654 134.056 193.654 136C193.654 137.944 194.746 139.12 196.558 139.12C198.37 139.12 199.462 137.944 199.462 136C199.462 134.056 198.37 132.88 196.558 132.88ZM196.558 133.708C197.77 133.708 198.502 134.572 198.502 136C198.502 137.428 197.77 138.292 196.558 138.292C195.346 138.292 194.614 137.428 194.614 136C194.614 134.572 195.346 133.708 196.558 133.708ZM204.159 132.88C203.223 132.88 202.575 133.252 202.239 133.984L202.107 133H201.327V139H202.287V135.76C202.287 134.416 203.151 133.78 203.871 133.78C204.183 133.78 204.447 133.84 204.627 133.936L204.819 133C204.639 132.904 204.363 132.88 204.159 132.88ZM209.141 132.88C208.313 132.88 207.545 133.18 207.125 133.936L207.065 133H206.225V139H207.185V135.808C207.185 134.272 208.169 133.72 209.045 133.72C209.873 133.72 210.521 134.164 210.521 135.496V139H211.481V135.16C211.481 133.612 210.425 132.88 209.141 132.88ZM218.803 135.688C218.803 134.14 217.855 132.88 216.115 132.88C214.303 132.88 213.283 134.056 213.283 136C213.283 137.944 214.375 139.12 216.187 139.12C217.483 139.12 218.227 138.628 218.683 137.812L217.879 137.392C217.663 137.968 217.063 138.28 216.187 138.28C215.083 138.28 214.351 137.572 214.231 136.36H218.755C218.779 136.192 218.803 135.964 218.803 135.688ZM216.115 133.72C217.135 133.72 217.747 134.404 217.879 135.508H214.243C214.387 134.38 215.047 133.72 216.115 133.72ZM223.46 132.88C222.524 132.88 221.876 133.252 221.54 133.984L221.408 133H220.628V139H221.588V135.76C221.588 134.416 222.452 133.78 223.172 133.78C223.484 133.78 223.748 133.84 223.928 133.936L224.12 133C223.94 132.904 223.664 132.88 223.46 132.88ZM225.045 137.56C224.577 137.56 224.265 137.872 224.265 138.34C224.265 138.808 224.577 139.12 225.045 139.12C225.513 139.12 225.825 138.808 225.825 138.34C225.825 137.872 225.513 137.56 225.045 137.56Z" fill="white"/>
<defs>
<filter id="filter0_f_40079_3892" x="0.564453" y="0.0644531" width="168.869" height="168.869" filterUnits="userSpaceOnUse" color-interpolation-filters="sRGB">
<feFlood flood-opacity="0" result="BackgroundImageFix"/>
<feBlend mode="normal" in="SourceGraphic" in2="BackgroundImageFix" result="shape"/>
<feGaussianBlur stdDeviation="27" result="effect1_foregroundBlur_40079_3892"/>
</filter>
<linearGradient id="paint0_linear_40079_3892" x1="54.9584" y1="42.834" x2="118.56" y2="56.0735" gradientUnits="userSpaceOnUse">
<stop stop-color="#A259FF"/>
<stop offset="1" stop-color="#3B3B3B"/>
</linearGradient>
<linearGradient id="paint1_linear_40079_3892" x1="64.4195" y1="54.0645" x2="123.281" y2="65.4163" gradientUnits="userSpaceOnUse">
<stop stop-color="#A259FF" stop-opacity="0"/>
<stop offset="1" stop-color="#FF6250"/>
</linearGradient>
<linearGradient id="paint2_linear_40079_3892" x1="116.771" y1="113.896" x2="122.108" y2="118.087" gradientUnits="userSpaceOnUse">
<stop stop-color="#A259FF"/>
<stop offset="1" stop-color="#377DF7"/>
</linearGradient>
<linearGradient id="paint3_linear_40079_3892" x1="56.1573" y1="119.835" x2="55.979" y2="125.145" gradientUnits="userSpaceOnUse">
<stop stop-color="#A259FF"/>
<stop offset="1" stop-color="#377DF7"/>
</linearGradient>
<linearGradient id="paint4_linear_40079_3892" x1="118.741" y1="58.8689" x2="124.046" y2="58.5647" gradientUnits="userSpaceOnUse">
<stop stop-color="#A259FF"/>
<stop offset="1" stop-color="#377DF7"/>
</linearGradient>
<linearGradient id="paint5_linear_40079_3892" x1="98.6058" y1="83.075" x2="111.686" y2="85.3366" gradientUnits="userSpaceOnUse">
<stop stop-color="#A259FF"/>
<stop offset="1" stop-color="#3B3B3B"/>
</linearGradient>
<linearGradient id="paint6_linear_40079_3892" x1="89.9992" y1="115.983" x2="75.8692" y2="88.235" gradientUnits="userSpaceOnUse">
<stop stop-color="#A259FF"/>
<stop offset="1" stop-color="#3B3B3B"/>
</linearGradient>
<linearGradient id="paint7_linear_40079_3892" x1="66.889" y1="68.5224" x2="100.918" y2="65.5831" gradientUnits="userSpaceOnUse">
<stop stop-color="#A259FF"/>
<stop offset="1" stop-color="#FF6250"/>
</linearGradient>
<linearGradient id="paint8_linear_40079_3892" x1="93.0699" y1="76.7155" x2="96.6417" y2="76.0803" gradientUnits="userSpaceOnUse">
<stop stop-color="#A259FF"/>
<stop offset="1" stop-color="#FF6250"/>
</linearGradient>
<linearGradient id="paint9_linear_40079_3892" x1="95.1834" y1="75.8969" x2="98.7548" y2="75.2618" gradientUnits="userSpaceOnUse">
<stop stop-color="#A259FF"/>
<stop offset="1" stop-color="#3B3B3B"/>
</linearGradient>
<linearGradient id="paint10_linear_40079_3892" x1="66.5623" y1="72.3689" x2="72.9499" y2="71.7471" gradientUnits="userSpaceOnUse">
<stop stop-color="#A259FF"/>
<stop offset="1" stop-color="#3B3B3B"/>
</linearGradient>
<linearGradient id="paint11_linear_40079_3892" x1="73.0784" y1="84.6557" x2="75.4915" y2="88.046" gradientUnits="userSpaceOnUse">
<stop stop-color="#A259FF"/>
<stop offset="1" stop-color="#FF6250"/>
</linearGradient>
<linearGradient id="paint12_linear_40079_3892" x1="72.9995" y1="86.6545" x2="75.6473" y2="89.7066" gradientUnits="userSpaceOnUse">
<stop stop-color="#A259FF"/>
<stop offset="1" stop-color="#FF6250"/>
</linearGradient>
<linearGradient id="paint13_linear_40079_3892" x1="68.6662" y1="90.2971" x2="101.359" y2="98.8869" gradientUnits="userSpaceOnUse">
<stop stop-color="#A259FF"/>
<stop offset="1" stop-color="#3B3B3B"/>
</linearGradient>
<linearGradient id="paint14_linear_40079_3892" x1="93.0777" y1="98.8902" x2="36.4423" y2="71.709" gradientUnits="userSpaceOnUse">
<stop stop-color="#A259FF"/>
<stop offset="0.666667" stop-color="white"/>
</linearGradient>
</defs>
</svg>
